# xmcd
#
# Track frame offsets: 
#        150
#        11119
#        25953
#        36246
#        49983
#        61097
#        71241
#        83237
#        94337
#        106758
#        119780
#        153149
#        169304
#        183798
#        196933
#
# Disc length: 2826 seconds
#
# Revision: 2
# Processed by: cddbd v1.5.1PL2 Copyright (c) Steve Scherf et al.
# Submitted via: ExactAudioCopy v0.95b3
#
DISCID=cb0b080f
DTITLE=Various Artist - All That Lounge [CD1]
DYEAR=2004
DGENRE=Jazz
TTITLE0=Herbie Mann and Tamiko Jones - A Man And A Woman
TTITLE1=Betty Carter - 'Round Midnight
TTITLE2=Bobby Darin - Multiplication
TTITLE3=Dean Martin - You Belong to Me
TTITLE4=Frank Sinatra - My Blue Heaven
TTITLE5=Shelly Manne - Daktari
TTITLE6=Esquivel - I Get a Kick Out of You
TTITLE7=Sergio Mendes - Penteio
TTITLE8=Aretha Franklin - (You Make me Feel Like) A Natural Woman
TTITLE9=Anthony Ventura and His Orchestra - Killing me Softly With His S
TTITLE9=ong
TTITLE10=Grover Washington jr. (Feat. Bill Withers) - Just The Two Of 
TTITLE10=Us
TTITLE11=Ananda Shankar - Jumpin' Jack Flash
TTITLE12=Jackie Paris - On a Slow Boat to China
TTITLE13=Dionne Warwick - I'll Never Fall in Love Again
TTITLE14=Dave Pike - Sunny
EXTD=
EXTT0=
EXTT1=
EXTT2=
EXTT3=
EXTT4=
EXTT5=
EXTT6=
EXTT7=
EXTT8=
EXTT9=
EXTT10=
EXTT11=
EXTT12=
EXTT13=
EXTT14=
PLAYORDER=
